<svg width="234" height="80" viewBox="0 0 234 80" fill="none" xmlns="http://www.w3.org/2000/svg">
<path d="M58.368 6.32L55.776 21.296H28.704L26.592 33.2H46.464L43.968 47.504H24.096L19.392 74H0.48L12.48 6.32H58.368Z" fill="#80DEEA"/>
<path d="M86.0685 6.32L74.1645 74H55.2525L67.2525 6.32H86.0685Z" fill="#80DEEA"/>
<path d="M148.72 6.32L146.032 21.296H128.08L118.768 74H99.8557L109.168 21.296H91.3117L93.9997 6.32H148.72Z" fill="#80DEEA"/>
<path d="M155.967 4.75222C156.479 1.40916 160.092 -0.472568 163.124 1.02525L230.452 34C234.226 35.8645 234.279 41.6222 230.452 43.3763L152.427 79.1375C148.81 80.7953 144.8 77.7693 145.402 73.8362L155.967 4.75222Z" fill="#80DEEA"/>
</svg>
