<svg width="233" height="80" viewBox="0 0 233 80" fill="none" xmlns="http://www.w3.org/2000/svg">
<path d="M57.888 5.81576L55.296 20.7918H28.224L26.112 32.6958H45.984L43.488 46.9998H23.616L18.912 73.4958H0L12 5.81576H57.888Z" fill="#FF6B35"/>
<path d="M85.5885 5.81576L73.6845 73.4958H54.7725L66.7725 5.81576H85.5885Z" fill="#FF6B35"/>
<path d="M148.24 5.81576L145.552 20.7918H127.6L118.288 73.4958H99.3757L108.688 20.7918H90.8317L93.5197 5.81576H148.24Z" fill="#FF6B35"/>
<path d="M155.487 4.24798C155.999 0.904925 159.612 -0.976806 162.644 0.521007L229.972 33.4958C233.746 35.3603 233.799 41.118 229.972 42.8721L151.947 78.6332C148.33 80.291 144.32 77.2651 144.922 73.332L155.487 4.24798Z" fill="#FF6B35"/>
</svg>
